<?xml version="1.0" standalone="no"?>
<!DOCTYPE svg PUBLIC "-//W3C//DTD SVG 20010904//EN"
 "http://www.w3.org/TR/2001/REC-SVG-20010904/DTD/svg10.dtd">
<svg version="1.0" xmlns="http://www.w3.org/2000/svg"
 width="400.000000pt" height="283.000000pt" viewBox="0 0 400.000000 283.000000"
 preserveAspectRatio="xMidYMid meet">

<g transform="translate(0.000000,283.000000) scale(0.100000,-0.100000)"
fill="#000000" stroke="none">
<path d="M1614 2208 c-19 -23 -19 -23 2 -5 24 20 54 21 123 5 51 -11 61 -20
39 -34 -7 -5 -8 -3 -3 7 5 8 -1 6 -13 -4 -15 -14 -29 -17 -49 -13 -34 8 -53
-10 -105 -94 -18 -30 -42 -56 -52 -58 -25 -5 -67 -32 -62 -41 3 -4 -5 -13 -16
-20 -19 -12 -18 -8 7 35 16 27 35 59 43 72 8 12 12 22 9 22 -12 0 -97 -152
-91 -162 4 -6 2 -8 -4 -5 -5 4 -22 -13 -36 -38 l-27 -45 -258 0 -258 0 -12
-26 c-6 -15 -10 -28 -9 -30 2 -1 138 -4 303 -5 l300 -2 37 64 c21 35 36 70 33
77 -3 7 -1 11 4 8 5 -3 34 39 66 94 31 55 66 112 79 126 l22 26 354 -100 c195
-55 374 -105 398 -112 23 -6 42 -16 42 -23 0 -6 -12 -42 -26 -80 -14 -37 -24
-70 -21 -73 3 -3 47 1 98 8 l94 13 3 33 c4 40 -69 179 -102 193 -36 16 -836
209 -865 209 -17 0 -36 -9 -47 -22z m161 -48 c3 -5 -1 -10 -10 -10 -9 0 -13 5
-10 10 3 6 8 10 10 10 2 0 7 -4 10 -10z m-217 -179 c-8 -12 -17 -18 -21 -15
-5 6 25 43 32 38 1 -1 -3 -12 -11 -23z"/>
<path d="M522 1675 c-84 -43 -133 -124 -134 -220 -1 -106 69 -161 191 -153 37
3 80 11 96 19 27 13 31 22 47 104 9 50 17 93 17 98 1 4 -37 7 -84 7 -77 0 -85
-2 -85 -19 0 -11 -3 -26 -6 -35 -5 -13 2 -16 35 -16 l42 0 -7 -37 c-4 -21 -9
-40 -11 -43 -3 -3 -25 -5 -50 -5 -86 0 -118 81 -70 175 30 60 75 83 147 77 30
-3 62 -8 71 -12 13 -5 18 2 22 31 4 21 4 40 1 43 -3 4 -42 7 -87 9 -73 3 -88
0 -135 -23z"/>
<path d="M882 1684 c-48 -24 -72 -60 -72 -106 0 -53 13 -74 63 -99 76 -39 92
-63 61 -93 -20 -20 -74 -20 -121 -1 -20 8 -37 14 -38 13 -1 -2 -5 -20 -8 -40
-5 -34 -3 -37 25 -47 108 -38 236 15 252 104 10 51 -12 84 -80 121 -66 35 -80
65 -43 84 27 15 91 15 118 0 18 -9 21 -7 27 14 13 54 5 61 -76 63 -54 2 -84
-2 -108 -13z"/>
<path d="M1155 1678 c-2 -13 -16 -90 -31 -173 -14 -82 -28 -160 -31 -172 -5
-21 -2 -23 35 -23 46 0 42 -10 67 150 27 163 23 167 65 -77 l12 -73 38 0 38 0
73 144 c41 80 75 143 76 142 1 -1 -9 -63 -22 -137 -14 -73 -25 -137 -25 -141
0 -5 19 -8 43 -8 l43 0 32 188 c18 103 32 191 32 195 0 4 -28 7 -62 5 l-61 -3
-72 -138 -72 -138 -23 141 -23 140 -63 0 c-58 0 -64 -2 -69 -22z"/>
<path d="M1885 1685 c-47 -24 -75 -65 -75 -108 0 -52 13 -73 63 -98 55 -28 77
-48 77 -70 0 -38 -72 -51 -137 -24 -20 8 -37 14 -38 13 -1 -2 -5 -20 -8 -40
-5 -34 -3 -37 25 -47 65 -23 174 -6 219 35 10 9 24 35 30 58 16 58 -4 94 -72
130 -56 30 -69 42 -69 63 0 31 95 47 139 23 18 -9 21 -7 27 14 13 54 5 61 -76
64 -52 1 -84 -2 -105 -13z"/>
<path d="M2120 1681 c0 -11 -3 -26 -6 -35 -5 -13 3 -16 50 -16 31 0 56 -3 56
-7 0 -5 -11 -71 -25 -147 -14 -77 -25 -146 -25 -154 0 -9 12 -12 42 -10 l42 3
22 125 c13 69 26 140 29 158 6 31 7 32 59 32 56 0 66 8 66 51 0 18 -9 19 -155
19 -146 0 -155 -1 -155 -19z"/>
<path d="M2572 1690 c-76 -31 -137 -119 -147 -211 -15 -130 90 -208 226 -168
91 28 159 127 159 231 0 109 -49 158 -155 157 -33 0 -70 -4 -83 -9z m123 -85
c31 -30 33 -91 6 -151 -24 -52 -55 -74 -103 -74 -55 0 -78 27 -78 91 0 120
108 202 175 134z"/>
<path d="M2906 1683 c-2 -10 -17 -88 -31 -173 -14 -85 -29 -165 -32 -177 -5
-21 -2 -23 40 -23 l44 0 14 73 c12 61 17 72 34 72 15 0 29 -18 55 -72 l35 -73
48 0 c26 0 47 3 47 6 0 17 -70 154 -79 154 -21 0 -10 15 20 29 63 28 92 129
48 169 -26 25 -62 32 -160 32 -65 0 -78 -3 -83 -17z m168 -76 c18 -28 -12 -70
-57 -81 -20 -5 -40 -7 -43 -3 -3 3 -3 29 1 57 l7 51 40 -3 c26 -2 45 -10 52
-21z"/>
<path d="M3239 1508 l-34 -193 114 -3 c62 -1 115 -1 116 0 2 2 6 18 10 36 l7
32 -71 0 c-67 0 -71 1 -71 23 1 61 8 67 76 67 44 0 64 4 64 13 0 6 3 22 6 35
6 21 4 22 -59 22 -71 0 -67 -5 -52 63 5 26 7 27 75 27 62 0 70 2 70 19 0 11 3
26 6 35 5 14 -8 16 -108 16 l-115 0 -34 -192z"/>
<path d="M1005 1158 c-30 -53 -55 -104 -54 -115 0 -10 19 -56 42 -103 l42 -84
370 -118 c223 -71 380 -116 395 -113 14 2 18 1 10 -2 -9 -4 12 -15 54 -30 38
-12 71 -21 74 -19 2 3 -22 13 -53 22 l-57 18 32 9 c36 9 71 37 48 37 -7 0 0
12 16 26 27 24 28 26 10 40 -18 14 -18 15 4 9 19 -5 23 -3 20 11 -2 14 12 24
62 43 50 20 65 30 62 44 -2 10 -8 14 -15 10 -8 -5 -8 -2 0 9 7 8 10 17 7 20
-5 6 74 23 88 20 12 -3 59 98 52 110 -4 6 -3 8 4 5 6 -4 31 31 61 86 l50 94
158 6 c87 4 195 7 240 7 l81 0 11 32 11 31 -122 -6 c-66 -4 -219 -7 -339 -7
l-217 0 -81 -156 c-45 -85 -78 -160 -75 -166 5 -7 2 -8 -6 -3 -10 6 -12 4 -7
-9 4 -9 3 -15 -2 -12 -11 7 -23 -22 -14 -36 3 -6 1 -8 -4 -5 -13 8 -26 -20
-16 -35 4 -7 1 -8 -7 -3 -10 6 -12 4 -7 -9 4 -9 3 -15 -2 -11 -5 3 -11 0 -13
-7 -3 -8 -136 28 -422 113 -230 68 -423 127 -428 130 -7 5 9 43 41 103 28 53
51 98 51 100 0 2 -23 6 -50 8 l-51 3 -54 -97z m1178 -224 c-10 -19 -19 -31
-21 -25 -2 5 -10 7 -18 4 -8 -3 -14 0 -14 7 0 7 8 10 19 7 13 -3 22 3 30 19 6
13 13 24 16 24 2 0 -3 -16 -12 -36z m-115 -109 c-2 -2 -21 -10 -43 -19 -30
-12 -35 -12 -22 -2 13 10 15 15 5 19 -7 2 4 5 25 5 21 0 37 -1 35 -3z m-98
-39 c0 -2 -12 -12 -27 -21 l-28 -18 19 21 c17 20 36 29 36 18z m-70 -106 c-18
-16 -36 -30 -42 -30 -5 0 -6 -5 -2 -12 4 -7 3 -8 -4 -4 -15 9 3 46 22 46 8 0
19 7 26 15 7 8 17 15 22 15 6 0 -4 -13 -22 -30z"/>
<path d="M2680 1132 c-61 -62 -44 -154 31 -160 90 -7 154 111 93 172 -27 27
-91 21 -124 -12z m88 -14 c19 -19 14 -73 -7 -92 -27 -24 -65 -17 -69 13 -6 38
7 71 31 81 30 12 31 12 45 -2z"/>
<path d="M2861 1083 c-7 -43 -15 -86 -18 -96 -4 -15 0 -18 19 -15 18 2 24 10
26 36 4 43 29 42 48 -3 13 -33 17 -35 59 -35 34 0 47 5 55 20 8 14 21 20 45
20 28 0 35 -4 35 -20 0 -15 7 -20 26 -20 22 0 25 3 21 23 -4 12 -11 55 -18 95
-11 68 -13 72 -38 72 -23 0 -33 -13 -75 -92 l-48 -91 -22 39 -22 39 23 18 c28
23 30 63 4 77 -11 5 -40 10 -64 10 l-44 0 -12 -77z m87 35 c15 -15 -3 -38 -30
-38 -14 0 -18 5 -14 16 3 9 6 20 6 25 0 13 24 11 38 -3z m172 -38 c0 -23 -5
-30 -19 -30 -17 0 -18 3 -8 30 6 17 15 30 19 30 4 0 8 -13 8 -30z"/>
<path d="M3235 1148 c-2 -7 -11 -50 -18 -96 -14 -83 -14 -83 7 -80 18 3 23 13
31 68 l10 65 32 -67 c24 -51 37 -68 52 -68 22 0 23 4 41 104 14 80 13 86 -9
86 -15 0 -20 -10 -25 -52 -4 -28 -10 -56 -13 -60 -2 -5 -18 18 -34 51 -21 46
-33 61 -49 61 -11 0 -23 -6 -25 -12z"/>
<path d="M1533 1130 c-48 -20 -58 -87 -17 -119 15 -12 32 -21 39 -21 7 0 24 9
39 21 35 27 37 90 4 113 -25 18 -33 19 -65 6z"/>
</svg>
